<?xml version="1.0" encoding="UTF-8" standalone="no"?>
<!DOCTYPE svg PUBLIC "-//W3C//DTD SVG 1.1//EN" "http://www.w3.org/Graphics/SVG/1.1/DTD/svg11.dtd">
<svg width="100%" height="100%" viewBox="0 0 1280 712" version="1.1" xmlns="http://www.w3.org/2000/svg" xmlns:xlink="http://www.w3.org/1999/xlink" xml:space="preserve" xmlns:serif="http://www.serif.com/" style="fill-rule:evenodd;clip-rule:evenodd;stroke-linecap:round;">
    <path id="path835" d="M1084.46,104.908L1084.46,265.857M1084.46,265.857L1051.08,274.725M1084.46,265.857L1195.34,304.856M1051.08,113.775L1051.08,274.725M1051.08,274.725L1161.96,313.723" style="fill:none;fill-rule:nonzero;stroke:black;stroke-width:1.81px;"/>
    <path id="path837" d="M1084.46,265.857L1051.08,274.725L1051.08,113.775L1084.46,265.857ZM1084.46,104.908L1084.46,265.857L1051.08,113.775L1084.46,104.908Z" style="fill:rgb(238,238,238);fill-opacity:0.42;fill-rule:nonzero;"/>
    <path id="path839" d="M1084.46,104.908L1051.08,113.775M1084.46,104.908L1195.34,143.906" style="fill:none;fill-rule:nonzero;stroke:black;stroke-width:1.81px;"/>
    <path id="path841" d="M1195.34,304.856L1084.46,265.857L1084.46,104.908L1195.34,304.856ZM1161.96,313.723L1051.08,274.725L1084.46,265.857L1161.96,313.723Z" style="fill:rgb(238,238,238);fill-opacity:0.42;fill-rule:nonzero;"/>
    <path id="path843" d="M1051.08,113.775L1161.96,152.773" style="fill:none;fill-rule:nonzero;stroke:black;stroke-width:1.81px;"/>
    <path id="path845" d="M1195.34,304.856L1161.96,313.723L1084.46,265.857L1195.34,304.856ZM1195.34,143.906L1084.46,104.908L1051.08,113.775L1195.34,143.906ZM1051.08,113.775L1051.08,274.725L1161.96,152.773L1051.08,113.775ZM1195.34,143.906L1195.34,304.856L1084.46,104.908L1195.34,143.906Z" style="fill:rgb(238,238,238);fill-opacity:0.42;fill-rule:nonzero;"/>
    <path id="path847" d="M959.596,153.08L959.596,292.974M959.596,292.974L909.52,306.275M959.596,292.974L1055.97,326.87M1161.96,313.723L1195.34,304.856M1195.34,143.906L1195.34,304.856" style="fill:none;fill-rule:nonzero;stroke:black;stroke-width:1.81px;"/>
    <path id="path849" d="M1051.08,274.725L1161.96,313.723L1161.96,152.773L1051.08,274.725Z" style="fill:rgb(238,238,238);fill-opacity:0.42;fill-rule:nonzero;"/>
    <path id="path851" d="M1023.4,262.19L1129.3,247.991M1023.4,274.341L1129.3,247.991M1031.77,277.285L1129.3,247.991M1031.77,265.134L1129.3,247.991" style="fill:none;fill-rule:nonzero;stroke:black;stroke-width:1.81px;"/>
    <path id="path853" d="M1161.96,313.723L1195.34,304.856L1195.34,143.906L1161.96,313.723Z" style="fill:rgb(238,238,238);fill-opacity:0.42;fill-rule:nonzero;"/>
    <path id="path855" d="M1161.96,152.773L1161.96,313.723" style="fill:none;fill-rule:nonzero;stroke:black;stroke-width:1.81px;"/>
    <path id="path857" d="M1161.96,152.773L1195.34,143.906L1051.08,113.775L1161.96,152.773Z" style="fill:rgb(238,238,238);fill-opacity:0.42;fill-rule:nonzero;"/>
    <path id="path859" d="M909.52,166.381L909.52,306.275M909.52,306.275L1005.89,340.171" style="fill:none;fill-rule:nonzero;stroke:black;stroke-width:1.81px;"/>
    <path id="path861" d="M959.596,292.974L909.52,306.275L909.52,166.381L959.596,292.974ZM959.596,153.08L959.596,292.974L909.52,166.381L959.596,153.08Z" style="fill:rgb(238,238,238);fill-opacity:0.42;fill-rule:nonzero;"/>
    <path id="path863" d="M959.596,153.08L909.52,166.381M959.596,153.08L1055.97,186.976" style="fill:none;fill-rule:nonzero;stroke:black;stroke-width:1.81px;"/>
    <path id="path865" d="M1055.97,326.87L959.596,292.974L959.596,153.08L1055.97,326.87Z" style="fill:rgb(238,238,238);fill-opacity:0.42;fill-rule:nonzero;"/>
    <path id="path867" d="M1161.96,152.773L1195.34,143.906" style="fill:none;fill-rule:nonzero;stroke:black;stroke-width:1.81px;"/>
    <path id="path869" d="M1161.96,152.773L1161.96,313.723L1195.34,143.906L1161.96,152.773Z" style="fill:rgb(238,238,238);fill-opacity:0.42;fill-rule:nonzero;"/>
    <path id="path871" d="M1023.4,274.341L1023.4,262.19L1129.3,247.991L1023.4,274.341ZM1031.77,277.285L1023.4,274.341L1129.3,247.991L1031.77,277.285Z" style="fill:rgb(255,187,187);fill-opacity:0.4;fill-rule:nonzero;"/>
    <path id="path873" d="M1005.89,340.171L909.52,306.275L959.596,292.974L1005.89,340.171Z" style="fill:rgb(238,238,238);fill-opacity:0.42;fill-rule:nonzero;"/>
    <path id="path875" d="M1023.4,262.19L1031.77,265.134L1129.3,247.991L1023.4,262.19ZM1031.77,265.134L1031.77,277.285L1129.3,247.991L1031.77,265.134Z" style="fill:rgb(255,187,187);fill-opacity:0.4;fill-rule:nonzero;"/>
    <path id="path877" d="M1023.4,262.19L1023.4,274.341M1023.4,274.341L1031.77,277.285M1023.4,262.19L1023.4,274.341M1023.4,274.341L973.325,287.642M1023.4,274.341L1031.77,277.285" style="fill:none;fill-rule:nonzero;stroke:black;stroke-width:1.81px;"/>
    <path id="path879" d="M1055.97,326.87L1005.89,340.171L959.596,292.974L1055.97,326.87Z" style="fill:rgb(238,238,238);fill-opacity:0.42;fill-rule:nonzero;"/>
    <path id="path881" d="M909.52,166.381L1005.89,200.277M1023.4,262.19L1031.77,265.134M1023.4,262.19L973.325,275.491M1023.4,262.19L1031.77,265.134" style="fill:none;fill-rule:nonzero;stroke:black;stroke-width:1.81px;"/>
    <path id="path883" d="M1023.4,262.19L1023.4,274.341L1031.77,277.285L1023.4,262.19Z" style="fill:rgb(255,187,187);fill-opacity:0.4;fill-rule:nonzero;"/>
    <path id="path885" d="M1031.77,277.285L1023.4,274.341L1023.4,262.19L1031.77,277.285Z" style="fill:rgb(153,221,255);fill-opacity:0.4;fill-rule:nonzero;"/>
    <path id="path887" d="M1023.4,262.19L1031.77,277.285L1031.77,265.134L1023.4,262.19Z" style="fill:rgb(255,187,187);fill-opacity:0.4;fill-rule:nonzero;"/>
    <path id="path889" d="M1031.77,265.134L1031.77,277.285L1023.4,262.19L1031.77,265.134Z" style="fill:rgb(153,221,255);fill-opacity:0.4;fill-rule:nonzero;"/>
    <path id="path891" d="M1031.77,277.285L1031.77,265.134M981.696,290.586L1031.77,277.285M1031.77,265.134L1031.77,277.285" style="fill:none;fill-rule:nonzero;stroke:black;stroke-width:1.81px;"/>
    <path id="path893" d="M1055.97,186.976L959.596,153.08L909.52,166.381L1055.97,186.976Z" style="fill:rgb(238,238,238);fill-opacity:0.42;fill-rule:nonzero;"/>
    <path id="path895" d="M981.696,278.435L1031.77,265.134" style="fill:none;fill-rule:nonzero;stroke:black;stroke-width:1.81px;"/>
    <path id="path897" d="M1023.4,262.19L1023.4,274.341L973.325,275.491L1023.4,262.19Z" style="fill:rgb(153,221,255);fill-opacity:0.4;fill-rule:nonzero;"/>
    <path id="path899" d="M1055.97,186.976L1055.97,326.87L959.596,153.08L1055.97,186.976Z" style="fill:rgb(238,238,238);fill-opacity:0.42;fill-rule:nonzero;"/>
    <path id="path901" d="M1031.77,277.285L981.696,290.586L1023.4,274.341L1031.77,277.285ZM1031.77,265.134L1023.4,262.19L973.325,275.491L1031.77,265.134Z" style="fill:rgb(153,221,255);fill-opacity:0.4;fill-rule:nonzero;"/>
    <path id="path903" d="M1005.89,340.171L1055.97,326.87M1055.97,186.976L1055.97,326.87" style="fill:none;fill-rule:nonzero;stroke:black;stroke-width:1.81px;"/>
    <path id="path905" d="M909.52,166.381L909.52,306.275L1005.89,200.277L909.52,166.381Z" style="fill:rgb(238,238,238);fill-opacity:0.42;fill-rule:nonzero;"/>
    <path id="path907" d="M981.696,290.586L1031.77,277.285L1031.77,265.134L981.696,290.586ZM1023.4,274.341L973.325,287.642L973.325,275.491L1023.4,274.341ZM981.696,290.586L973.325,287.642L1023.4,274.341L981.696,290.586ZM981.696,278.435L1031.77,265.134L973.325,275.491L981.696,278.435ZM981.696,278.435L981.696,290.586L1031.77,265.134L981.696,278.435Z" style="fill:rgb(153,221,255);fill-opacity:0.4;fill-rule:nonzero;"/>
    <path id="path909" d="M973.325,275.491L973.325,287.642M973.325,287.642L981.696,290.586" style="fill:none;fill-rule:nonzero;stroke:black;stroke-width:1.81px;"/>
    <path id="path911" d="M909.52,306.275L1005.89,340.171L1005.89,200.277L909.52,306.275Z" style="fill:rgb(238,238,238);fill-opacity:0.42;fill-rule:nonzero;"/>
    <path id="path913" d="M973.325,275.491L981.696,278.435" style="fill:none;fill-rule:nonzero;stroke:black;stroke-width:1.81px;"/>
    <path id="path915" d="M973.325,275.491L973.325,287.642L981.696,278.435L973.325,275.491Z" style="fill:rgb(153,221,255);fill-opacity:0.4;fill-rule:nonzero;"/>
    <path id="path917" d="M864.791,271.321L969.482,252.531M864.791,283.472L969.482,252.531M873.162,286.417L969.482,252.531M873.162,274.266L969.482,252.531" style="fill:none;fill-rule:nonzero;stroke:black;stroke-width:1.81px;"/>
    <path id="path919" d="M973.325,287.642L981.696,290.586L981.696,278.435L973.325,287.642Z" style="fill:rgb(153,221,255);fill-opacity:0.4;fill-rule:nonzero;"/>
    <path id="path921" d="M981.696,278.435L981.696,290.586" style="fill:none;fill-rule:nonzero;stroke:black;stroke-width:1.81px;"/>
    <path id="path923" d="M1005.89,340.171L1055.97,326.87L1055.97,186.976L1005.89,340.171Z" style="fill:rgb(238,238,238);fill-opacity:0.42;fill-rule:nonzero;"/>
    <path id="path925" d="M818.039,205.686L818.039,324.523M818.039,324.523L751.271,342.258M818.039,324.523L899.908,353.318" style="fill:none;fill-rule:nonzero;stroke:black;stroke-width:1.81px;"/>
    <path id="path927" d="M1005.89,200.277L1055.97,186.976L909.52,166.381L1005.89,200.277Z" style="fill:rgb(238,238,238);fill-opacity:0.42;fill-rule:nonzero;"/>
    <path id="path929" d="M1005.89,200.277L1005.89,340.171M1005.89,200.277L1055.97,186.976" style="fill:none;fill-rule:nonzero;stroke:black;stroke-width:1.81px;"/>
    <path id="path931" d="M1005.89,200.277L1005.89,340.171L1055.97,186.976L1005.89,200.277Z" style="fill:rgb(238,238,238);fill-opacity:0.42;fill-rule:nonzero;"/>
    <path id="path933" d="M818.039,205.686L751.271,223.421M818.039,205.686L899.908,234.48" style="fill:none;fill-rule:nonzero;stroke:black;stroke-width:1.81px;"/>
    <path id="path935" d="M899.908,353.318L818.039,324.523L818.039,205.686L899.908,353.318ZM818.039,205.686L818.039,324.523L751.271,223.421L818.039,205.686Z" style="fill:rgb(238,238,238);fill-opacity:0.42;fill-rule:nonzero;"/>
    <path id="path937" d="M864.791,283.472L864.791,271.321L969.482,252.531L864.791,283.472ZM873.162,286.417L864.791,283.472L969.482,252.531L873.162,286.417Z" style="fill:rgb(255,187,187);fill-opacity:0.4;fill-rule:nonzero;"/>
    <path id="path939" d="M818.039,324.523L751.271,342.258L751.271,223.421L818.039,324.523Z" style="fill:rgb(238,238,238);fill-opacity:0.42;fill-rule:nonzero;"/>
    <path id="path941" d="M864.791,271.321L873.162,274.266L969.482,252.531L864.791,271.321ZM873.162,274.266L873.162,286.417L969.482,252.531L873.162,274.266Z" style="fill:rgb(255,187,187);fill-opacity:0.4;fill-rule:nonzero;"/>
    <path id="path943" d="M751.271,223.421L751.271,342.258M751.271,342.258L833.14,371.053" style="fill:none;fill-rule:nonzero;stroke:black;stroke-width:1.81px;"/>
    <path id="path945" d="M833.14,371.053L751.271,342.258L818.039,324.523L833.14,371.053Z" style="fill:rgb(238,238,238);fill-opacity:0.42;fill-rule:nonzero;"/>
    <path id="path947" d="M864.791,271.321L864.791,283.472M864.791,283.472L873.162,286.417M864.791,271.321L864.791,283.472M864.791,283.472L798.023,301.207M864.791,283.472L873.162,286.417M864.791,271.321L873.162,274.266M864.791,271.321L798.023,289.056M864.791,271.321L873.162,274.266" style="fill:none;fill-rule:nonzero;stroke:black;stroke-width:1.81px;"/>
    <path id="path949" d="M873.162,286.417L864.791,283.472L864.791,271.321L873.162,286.417Z" style="fill:rgb(153,221,255);fill-opacity:0.4;fill-rule:nonzero;"/>
    <path id="path951" d="M864.791,271.321L864.791,283.472L873.162,286.417L864.791,271.321Z" style="fill:rgb(255,187,187);fill-opacity:0.4;fill-rule:nonzero;"/>
    <path id="path953" d="M899.908,353.318L833.14,371.053L818.039,324.523L899.908,353.318Z" style="fill:rgb(238,238,238);fill-opacity:0.42;fill-rule:nonzero;"/>
    <path id="path955" d="M873.162,274.266L873.162,286.417L864.791,271.321L873.162,274.266Z" style="fill:rgb(153,221,255);fill-opacity:0.4;fill-rule:nonzero;"/>
    <path id="path957" d="M864.791,271.321L873.162,286.417L873.162,274.266L864.791,271.321Z" style="fill:rgb(255,187,187);fill-opacity:0.4;fill-rule:nonzero;"/>
    <path id="path959" d="M873.162,286.417L873.162,274.266M806.394,304.152L873.162,286.417M873.162,274.266L873.162,286.417M806.394,292.001L873.162,274.266" style="fill:none;fill-rule:nonzero;stroke:black;stroke-width:1.81px;"/>
    <path id="path961" d="M899.908,234.48L899.908,353.318L818.039,205.686L899.908,234.48ZM899.908,234.48L818.039,205.686L751.271,223.421L899.908,234.48Z" style="fill:rgb(238,238,238);fill-opacity:0.42;fill-rule:nonzero;"/>
    <path id="path963" d="M833.14,371.053L899.908,353.318M899.908,234.48L899.908,353.318" style="fill:none;fill-rule:nonzero;stroke:black;stroke-width:1.81px;"/>
    <path id="path965" d="M864.791,271.321L864.791,283.472L798.023,289.056L864.791,271.321Z" style="fill:rgb(153,221,255);fill-opacity:0.4;fill-rule:nonzero;"/>
    <path id="path967" d="M751.271,223.421L833.14,252.215" style="fill:none;fill-rule:nonzero;stroke:black;stroke-width:1.81px;"/>
    <path id="path969" d="M873.162,286.417L806.394,304.152L864.791,283.472L873.162,286.417ZM873.162,274.266L864.791,271.321L798.023,289.056L873.162,274.266ZM806.394,304.152L873.162,286.417L873.162,274.266L806.394,304.152Z" style="fill:rgb(153,221,255);fill-opacity:0.4;fill-rule:nonzero;"/>
    <path id="path971" d="M670.961,276.289L769.934,249.078M670.961,288.44L769.934,249.078M679.332,291.384L769.934,249.078M679.332,279.233L769.934,249.078" style="fill:none;fill-rule:nonzero;stroke:black;stroke-width:1.81px;"/>
    <path id="path973" d="M864.791,283.472L798.023,301.207L798.023,289.056L864.791,283.472ZM806.394,304.152L798.023,301.207L864.791,283.472L806.394,304.152Z" style="fill:rgb(153,221,255);fill-opacity:0.4;fill-rule:nonzero;"/>
    <path id="path975" d="M751.271,223.421L751.271,342.258L833.14,252.215L751.271,223.421Z" style="fill:rgb(238,238,238);fill-opacity:0.42;fill-rule:nonzero;"/>
    <path id="path977" d="M806.394,292.001L873.162,274.266L798.023,289.056L806.394,292.001ZM806.394,292.001L806.394,304.152L873.162,274.266L806.394,292.001Z" style="fill:rgb(153,221,255);fill-opacity:0.4;fill-rule:nonzero;"/>
    <path id="path979" d="M833.14,371.053L899.908,353.318L899.908,234.48L833.14,371.053Z" style="fill:rgb(238,238,238);fill-opacity:0.42;fill-rule:nonzero;"/>
    <path id="path981" d="M798.023,289.056L798.023,301.207M798.023,301.207L806.394,304.152" style="fill:none;fill-rule:nonzero;stroke:black;stroke-width:1.81px;"/>
    <path id="path983" d="M751.271,342.258L833.14,371.053L833.14,252.215L751.271,342.258Z" style="fill:rgb(238,238,238);fill-opacity:0.42;fill-rule:nonzero;"/>
    <path id="path985" d="M833.14,252.215L899.908,234.48M798.023,289.056L806.394,292.001" style="fill:none;fill-rule:nonzero;stroke:black;stroke-width:1.81px;"/>
    <path id="path987" d="M798.023,289.056L798.023,301.207L806.394,292.001L798.023,289.056ZM798.023,301.207L806.394,304.152L806.394,292.001L798.023,301.207Z" style="fill:rgb(153,221,255);fill-opacity:0.4;fill-rule:nonzero;"/>
    <path id="path989" d="M806.394,292.001L806.394,304.152" style="fill:none;fill-rule:nonzero;stroke:black;stroke-width:1.81px;"/>
    <path id="path991" d="M833.14,252.215L899.908,234.48L751.271,223.421L833.14,252.215Z" style="fill:rgb(238,238,238);fill-opacity:0.42;fill-rule:nonzero;"/>
    <path id="path993" d="M833.14,252.215L833.14,371.053M659.79,262.725L659.79,360.507M659.79,360.507L576.33,382.675M659.79,360.507L727.153,384.199" style="fill:none;fill-rule:nonzero;stroke:black;stroke-width:1.81px;"/>
    <path id="path995" d="M833.14,252.215L833.14,371.053L899.908,234.48L833.14,252.215Z" style="fill:rgb(238,238,238);fill-opacity:0.42;fill-rule:nonzero;"/>
    <path id="path997" d="M670.961,288.44L670.961,276.289L769.934,249.078L670.961,288.44ZM679.332,291.384L670.961,288.44L769.934,249.078L679.332,291.384ZM670.961,276.289L679.332,279.233L769.934,249.078L670.961,276.289ZM679.332,279.233L679.332,291.384L769.934,249.078L679.332,279.233Z" style="fill:rgb(255,187,187);fill-opacity:0.4;fill-rule:nonzero;"/>
    <path id="path999" d="M659.79,262.725L576.33,284.894M659.79,262.725L727.153,286.418" style="fill:none;fill-rule:nonzero;stroke:black;stroke-width:1.81px;"/>
    <path id="path1001" d="M727.153,384.199L659.79,360.507L659.79,262.725L727.153,384.199Z" style="fill:rgb(238,238,238);fill-opacity:0.42;fill-rule:nonzero;"/>
    <path id="path1003" d="M670.961,276.289L670.961,288.44M670.961,288.44L587.501,310.608M670.961,288.44L679.332,291.384M670.961,276.289L670.961,288.44M670.961,288.44L679.332,291.384M670.961,276.289L587.501,298.457M670.961,276.289L679.332,279.233M670.961,276.289L679.332,279.233" style="fill:none;fill-rule:nonzero;stroke:black;stroke-width:1.81px;"/>
    <path id="path1005" d="M679.332,291.384L670.961,288.44L670.961,276.289L679.332,291.384Z" style="fill:rgb(153,221,255);fill-opacity:0.4;fill-rule:nonzero;"/>
    <path id="path1007" d="M670.961,276.289L670.961,288.44L679.332,291.384L670.961,276.289Z" style="fill:rgb(255,187,187);fill-opacity:0.4;fill-rule:nonzero;"/>
    <path id="path1009" d="M659.79,262.725L659.79,360.507L576.33,284.894L659.79,262.725Z" style="fill:rgb(238,238,238);fill-opacity:0.42;fill-rule:nonzero;"/>
    <path id="path1011" d="M679.332,279.233L679.332,291.384L670.961,276.289L679.332,279.233Z" style="fill:rgb(153,221,255);fill-opacity:0.4;fill-rule:nonzero;"/>
    <path id="path1013" d="M670.961,276.289L679.332,291.384L679.332,279.233L670.961,276.289Z" style="fill:rgb(255,187,187);fill-opacity:0.4;fill-rule:nonzero;"/>
    <path id="path1015" d="M595.872,313.553L679.332,291.384M679.332,279.233L679.332,291.384M679.332,291.384L679.332,279.233M595.872,301.402L679.332,279.233" style="fill:none;fill-rule:nonzero;stroke:black;stroke-width:1.81px;"/>
    <path id="path1017" d="M659.79,360.507L576.33,382.675L576.33,284.894L659.79,360.507Z" style="fill:rgb(238,238,238);fill-opacity:0.42;fill-rule:nonzero;"/>
    <path id="path1019" d="M670.961,276.289L670.961,288.44L587.501,298.457L670.961,276.289ZM679.332,291.384L595.872,313.553L670.961,288.44L679.332,291.384ZM679.332,279.233L670.961,276.289L587.501,298.457L679.332,279.233Z" style="fill:rgb(153,221,255);fill-opacity:0.4;fill-rule:nonzero;"/>
    <path id="path1021" d="M576.33,284.894L576.33,382.675M576.33,382.675L643.693,406.368" style="fill:none;fill-rule:nonzero;stroke:black;stroke-width:1.81px;"/>
    <path id="path1023" d="M595.872,313.553L679.332,291.384L679.332,279.233L595.872,313.553Z" style="fill:rgb(153,221,255);fill-opacity:0.4;fill-rule:nonzero;"/>
    <path id="path1025" d="M727.153,286.418L727.153,384.199L659.79,262.725L727.153,286.418ZM643.693,406.368L576.33,382.675L659.79,360.507L643.693,406.368ZM727.153,384.199L643.693,406.368L659.79,360.507L727.153,384.199Z" style="fill:rgb(238,238,238);fill-opacity:0.42;fill-rule:nonzero;"/>
    <path id="path1027" d="M643.693,406.368L727.153,384.199M727.153,286.418L727.153,384.199" style="fill:none;fill-rule:nonzero;stroke:black;stroke-width:1.81px;"/>
    <path id="path1029" d="M727.153,286.418L659.79,262.725L576.33,284.894L727.153,286.418Z" style="fill:rgb(238,238,238);fill-opacity:0.42;fill-rule:nonzero;"/>
    <path id="path1031" d="M670.961,288.44L587.501,310.608L587.501,298.457L670.961,288.44ZM595.872,313.553L587.501,310.608L670.961,288.44L595.872,313.553ZM595.872,301.402L679.332,279.233L587.501,298.457L595.872,301.402ZM595.872,301.402L595.872,313.553L679.332,279.233L595.872,301.402Z" style="fill:rgb(153,221,255);fill-opacity:0.4;fill-rule:nonzero;"/>
    <path id="path1033" d="M576.33,284.894L643.693,308.587M643.693,308.587L727.153,286.418M587.501,298.457L587.501,310.608M587.501,310.608L595.872,313.553" style="fill:none;fill-rule:nonzero;stroke:black;stroke-width:1.81px;"/>
    <path id="path1035" d="M643.693,406.368L727.153,384.199L727.153,286.418L643.693,406.368Z" style="fill:rgb(238,238,238);fill-opacity:0.42;fill-rule:nonzero;"/>
    <path id="path1037" d="M587.501,298.457L595.872,301.402" style="fill:none;fill-rule:nonzero;stroke:black;stroke-width:1.81px;"/>
    <path id="path1039" d="M587.501,298.457L587.501,310.608L595.872,301.402L587.501,298.457ZM587.501,310.608L595.872,313.553L595.872,301.402L587.501,310.608Z" style="fill:rgb(153,221,255);fill-opacity:0.4;fill-rule:nonzero;"/>
    <path id="path1041" d="M576.33,284.894L576.33,382.675L643.693,308.587L576.33,284.894Z" style="fill:rgb(238,238,238);fill-opacity:0.42;fill-rule:nonzero;"/>
    <path id="path1043" d="M595.872,301.402L595.872,313.553" style="fill:none;fill-rule:nonzero;stroke:black;stroke-width:1.81px;"/>
    <path id="path1045" d="M643.693,308.587L727.153,286.418L576.33,284.894L643.693,308.587ZM576.33,382.675L643.693,406.368L643.693,308.587L576.33,382.675Z" style="fill:rgb(238,238,238);fill-opacity:0.42;fill-rule:nonzero;"/>
    <path id="path1047" d="M529.44,390.064L628.4,366.822M529.44,402.215L628.4,366.822M537.811,405.159L628.4,366.822M537.811,393.008L628.4,366.822M470.343,298.041L470.343,416.878M470.343,416.878L403.575,434.613M470.343,416.878L552.212,445.673" style="fill:none;fill-rule:nonzero;stroke:black;stroke-width:1.81px;"/>
    <path id="path1049" d="M643.693,308.587L643.693,406.368L727.153,286.418L643.693,308.587Z" style="fill:rgb(238,238,238);fill-opacity:0.42;fill-rule:nonzero;"/>
    <path id="path1051" d="M643.693,308.587L643.693,406.368M470.343,298.041L403.575,315.776M470.343,298.041L552.212,326.835" style="fill:none;fill-rule:nonzero;stroke:black;stroke-width:1.81px;"/>
    <path id="path1053" d="M552.212,445.673L470.343,416.878L470.343,298.041L552.212,445.673ZM470.343,298.041L470.343,416.878L403.575,315.776L470.343,298.041ZM470.343,416.878L403.575,434.613L403.575,315.776L470.343,416.878Z" style="fill:rgb(238,238,238);fill-opacity:0.42;fill-rule:nonzero;"/>
    <path id="path1055" d="M529.44,402.215L529.44,390.064L628.4,366.822L529.44,402.215ZM537.811,405.159L529.44,402.215L628.4,366.822L537.811,405.159Z" style="fill:rgb(255,187,187);fill-opacity:0.4;fill-rule:nonzero;"/>
    <path id="path1057" d="M403.575,315.776L403.575,434.613M403.575,434.613L485.444,463.408" style="fill:none;fill-rule:nonzero;stroke:black;stroke-width:1.81px;"/>
    <path id="path1059" d="M529.44,390.064L537.811,393.008L628.4,366.822L529.44,390.064ZM537.811,393.008L537.811,405.159L628.4,366.822L537.811,393.008Z" style="fill:rgb(255,187,187);fill-opacity:0.4;fill-rule:nonzero;"/>
    <path id="path1061" d="M485.444,463.408L403.575,434.613L470.343,416.878L485.444,463.408Z" style="fill:rgb(238,238,238);fill-opacity:0.42;fill-rule:nonzero;"/>
    <path id="path1063" d="M529.44,390.064L529.44,402.215M529.44,402.215L462.672,419.949M529.44,402.215L537.811,405.159M529.44,390.064L529.44,402.215M529.44,402.215L537.811,405.159" style="fill:none;fill-rule:nonzero;stroke:black;stroke-width:1.81px;"/>
    <path id="path1065" d="M552.212,445.673L485.444,463.408L470.343,416.878L552.212,445.673Z" style="fill:rgb(238,238,238);fill-opacity:0.42;fill-rule:nonzero;"/>
    <path id="path1067" d="M308.073,427.71L416.038,406.106M308.073,439.861L416.038,406.106M316.444,442.805L416.038,406.106M316.444,430.654L416.038,406.106M529.44,390.064L462.672,407.798M529.44,390.064L537.811,393.008M529.44,390.064L537.811,393.008" style="fill:none;fill-rule:nonzero;stroke:black;stroke-width:1.81px;"/>
    <path id="path1069" d="M537.811,405.159L529.44,402.215L529.44,390.064L537.811,405.159Z" style="fill:rgb(153,221,255);fill-opacity:0.4;fill-rule:nonzero;"/>
    <path id="path1071" d="M529.44,390.064L529.44,402.215L537.811,405.159L529.44,390.064Z" style="fill:rgb(255,187,187);fill-opacity:0.4;fill-rule:nonzero;"/>
    <path id="path1073" d="M537.811,393.008L537.811,405.159L529.44,390.064L537.811,393.008Z" style="fill:rgb(153,221,255);fill-opacity:0.4;fill-rule:nonzero;"/>
    <path id="path1075" d="M529.44,390.064L537.811,405.159L537.811,393.008L529.44,390.064Z" style="fill:rgb(255,187,187);fill-opacity:0.4;fill-rule:nonzero;"/>
    <path id="path1077" d="M552.212,326.835L552.212,445.673L470.343,298.041L552.212,326.835Z" style="fill:rgb(238,238,238);fill-opacity:0.42;fill-rule:nonzero;"/>
    <path id="path1079" d="M471.043,422.894L537.811,405.159M537.811,393.008L537.811,405.159M537.811,405.159L537.811,393.008" style="fill:none;fill-rule:nonzero;stroke:black;stroke-width:1.81px;"/>
    <path id="path1081" d="M552.212,326.835L470.343,298.041L403.575,315.776L552.212,326.835Z" style="fill:rgb(238,238,238);fill-opacity:0.42;fill-rule:nonzero;"/>
    <path id="path1083" d="M471.043,410.743L537.811,393.008M485.444,463.408L552.212,445.673M552.212,326.835L552.212,445.673M403.575,315.776L485.444,344.57" style="fill:none;fill-rule:nonzero;stroke:black;stroke-width:1.81px;"/>
    <path id="path1085" d="M529.44,390.064L529.44,402.215L462.672,407.798L529.44,390.064ZM537.811,405.159L471.043,422.894L529.44,402.215L537.811,405.159ZM537.811,393.008L529.44,390.064L462.672,407.798L537.811,393.008ZM471.043,422.894L537.811,405.159L537.811,393.008L471.043,422.894Z" style="fill:rgb(153,221,255);fill-opacity:0.4;fill-rule:nonzero;"/>
    <path id="path1087" d="M403.575,315.776L403.575,434.613L485.444,344.57L403.575,315.776Z" style="fill:rgb(238,238,238);fill-opacity:0.42;fill-rule:nonzero;"/>
    <path id="path1089" d="M529.44,402.215L462.672,419.949L462.672,407.798L529.44,402.215ZM471.043,422.894L462.672,419.949L529.44,402.215L471.043,422.894Z" style="fill:rgb(153,221,255);fill-opacity:0.4;fill-rule:nonzero;"/>
    <path id="path1091" d="M485.444,463.408L552.212,445.673L552.212,326.835L485.444,463.408Z" style="fill:rgb(238,238,238);fill-opacity:0.42;fill-rule:nonzero;"/>
    <path id="path1093" d="M471.043,410.743L537.811,393.008L462.672,407.798L471.043,410.743ZM471.043,410.743L471.043,422.894L537.811,393.008L471.043,410.743Z" style="fill:rgb(153,221,255);fill-opacity:0.4;fill-rule:nonzero;"/>
    <path id="path1095" d="M297.588,328.922L297.588,468.816M297.588,468.816L247.512,482.117M297.588,468.816L393.963,502.712" style="fill:none;fill-rule:nonzero;stroke:black;stroke-width:1.81px;"/>
    <path id="path1097" d="M308.073,439.861L308.073,427.71L416.038,406.106L308.073,439.861Z" style="fill:rgb(255,187,187);fill-opacity:0.4;fill-rule:nonzero;"/>
    <path id="path1099" d="M403.575,434.613L485.444,463.408L485.444,344.57L403.575,434.613Z" style="fill:rgb(238,238,238);fill-opacity:0.42;fill-rule:nonzero;"/>
    <path id="path1101" d="M485.444,344.57L552.212,326.835" style="fill:none;fill-rule:nonzero;stroke:black;stroke-width:1.81px;"/>
    <path id="path1103" d="M316.444,442.805L308.073,439.861L416.038,406.106L316.444,442.805ZM308.073,427.71L316.444,430.654L416.038,406.106L308.073,427.71Z" style="fill:rgb(255,187,187);fill-opacity:0.4;fill-rule:nonzero;"/>
    <path id="path1105" d="M462.672,407.798L462.672,419.949M462.672,419.949L471.043,422.894" style="fill:none;fill-rule:nonzero;stroke:black;stroke-width:1.81px;"/>
    <path id="path1107" d="M316.444,430.654L316.444,442.805L416.038,406.106L316.444,430.654Z" style="fill:rgb(255,187,187);fill-opacity:0.4;fill-rule:nonzero;"/>
    <path id="path1109" d="M485.444,344.57L552.212,326.835L403.575,315.776L485.444,344.57Z" style="fill:rgb(238,238,238);fill-opacity:0.42;fill-rule:nonzero;"/>
    <path id="path1111" d="M462.672,407.798L471.043,410.743" style="fill:none;fill-rule:nonzero;stroke:black;stroke-width:1.81px;"/>
    <path id="path1113" d="M462.672,407.798L462.672,419.949L471.043,410.743L462.672,407.798ZM462.672,419.949L471.043,422.894L471.043,410.743L462.672,419.949Z" style="fill:rgb(153,221,255);fill-opacity:0.4;fill-rule:nonzero;"/>
    <path id="path1115" d="M471.043,410.743L471.043,422.894M485.444,344.57L485.444,463.408M308.073,427.71L308.073,439.861M308.073,439.861L257.997,453.162M308.073,439.861L316.444,442.805M308.073,427.71L308.073,439.861M308.073,439.861L316.444,442.805M308.073,427.71L257.997,441.011M308.073,427.71L316.444,430.654M308.073,427.71L316.444,430.654" style="fill:none;fill-rule:nonzero;stroke:black;stroke-width:1.81px;"/>
    <path id="path1117" d="M308.073,427.71L308.073,439.861L316.444,442.805L308.073,427.71Z" style="fill:rgb(255,187,187);fill-opacity:0.4;fill-rule:nonzero;"/>
    <path id="path1119" d="M316.444,442.805L308.073,439.861L308.073,427.71L316.444,442.805Z" style="fill:rgb(153,221,255);fill-opacity:0.4;fill-rule:nonzero;"/>
    <path id="path1121" d="M485.444,344.57L485.444,463.408L552.212,326.835L485.444,344.57Z" style="fill:rgb(238,238,238);fill-opacity:0.42;fill-rule:nonzero;"/>
    <path id="path1123" d="M308.073,427.71L316.444,442.805L316.444,430.654L308.073,427.71Z" style="fill:rgb(255,187,187);fill-opacity:0.4;fill-rule:nonzero;"/>
    <path id="path1125" d="M316.444,430.654L316.444,442.805L308.073,427.71L316.444,430.654Z" style="fill:rgb(153,221,255);fill-opacity:0.4;fill-rule:nonzero;"/>
    <path id="path1127" d="M266.368,456.106L316.444,442.805M316.444,430.654L316.444,442.805M316.444,442.805L316.444,430.654M266.368,443.955L316.444,430.654" style="fill:none;fill-rule:nonzero;stroke:black;stroke-width:1.81px;"/>
    <path id="path1129" d="M308.073,427.71L308.073,439.861L257.997,441.011L308.073,427.71Z" style="fill:rgb(153,221,255);fill-opacity:0.4;fill-rule:nonzero;"/>
    <path id="path1131" d="M247.512,342.224L247.512,482.117M247.512,482.117L343.887,516.013" style="fill:none;fill-rule:nonzero;stroke:black;stroke-width:1.81px;"/>
    <path id="path1133" d="M316.444,442.805L266.368,456.106L308.073,439.861L316.444,442.805Z" style="fill:rgb(153,221,255);fill-opacity:0.4;fill-rule:nonzero;"/>
    <path id="path1135" d="M297.588,468.816L247.512,482.117L247.512,342.224L297.588,468.816Z" style="fill:rgb(238,238,238);fill-opacity:0.42;fill-rule:nonzero;"/>
    <path id="path1137" d="M316.444,430.654L308.073,427.71L257.997,441.011L316.444,430.654Z" style="fill:rgb(153,221,255);fill-opacity:0.4;fill-rule:nonzero;"/>
    <path id="path1139" d="M297.588,328.922L297.588,468.816L247.512,342.224L297.588,328.922Z" style="fill:rgb(238,238,238);fill-opacity:0.42;fill-rule:nonzero;"/>
    <path id="path1141" d="M297.588,328.922L247.512,342.224M297.588,328.922L393.963,362.819" style="fill:none;fill-rule:nonzero;stroke:black;stroke-width:1.81px;"/>
    <path id="path1143" d="M266.368,456.106L316.444,442.805L316.444,430.654L266.368,456.106Z" style="fill:rgb(153,221,255);fill-opacity:0.4;fill-rule:nonzero;"/>
    <path id="path1145" d="M393.963,502.712L297.588,468.816L297.588,328.922L393.963,502.712Z" style="fill:rgb(238,238,238);fill-opacity:0.42;fill-rule:nonzero;"/>
    <path id="path1147" d="M308.073,439.861L257.997,453.162L257.997,441.011L308.073,439.861ZM266.368,456.106L257.997,453.162L308.073,439.861L266.368,456.106ZM266.368,443.955L316.444,430.654L257.997,441.011L266.368,443.955ZM266.368,443.955L266.368,456.106L316.444,430.654L266.368,443.955Z" style="fill:rgb(153,221,255);fill-opacity:0.4;fill-rule:nonzero;"/>
    <path id="path1149" d="M343.887,516.013L247.512,482.117L297.588,468.816L343.887,516.013Z" style="fill:rgb(238,238,238);fill-opacity:0.42;fill-rule:nonzero;"/>
    <path id="path1151" d="M257.997,441.011L257.997,453.162M257.997,453.162L266.368,456.106M257.997,441.011L266.368,443.955" style="fill:none;fill-rule:nonzero;stroke:black;stroke-width:1.81px;"/>
    <path id="path1153" d="M257.997,441.011L257.997,453.162L266.368,443.955L257.997,441.011ZM257.997,453.162L266.368,456.106L266.368,443.955L257.997,453.162Z" style="fill:rgb(153,221,255);fill-opacity:0.4;fill-rule:nonzero;"/>
    <path id="path1155" d="M266.368,443.955L266.368,456.106" style="fill:none;fill-rule:nonzero;stroke:black;stroke-width:1.81px;"/>
    <path id="path1157" d="M393.963,502.712L343.887,516.013L297.588,468.816L393.963,502.712Z" style="fill:rgb(238,238,238);fill-opacity:0.42;fill-rule:nonzero;"/>
    <path id="path1159" d="M247.512,342.224L343.887,376.12" style="fill:none;fill-rule:nonzero;stroke:black;stroke-width:1.81px;"/>
    <path id="path1161" d="M393.963,362.819L297.588,328.922L247.512,342.224L393.963,362.819ZM393.963,362.819L393.963,502.712L297.588,328.922L393.963,362.819Z" style="fill:rgb(238,238,238);fill-opacity:0.42;fill-rule:nonzero;"/>
    <path id="path1163" d="M343.887,516.013L393.963,502.712M393.963,362.819L393.963,502.712" style="fill:none;fill-rule:nonzero;stroke:black;stroke-width:1.81px;"/>
    <path id="path1165" d="M247.512,342.224L247.512,482.117L343.887,376.12L247.512,342.224Z" style="fill:rgb(238,238,238);fill-opacity:0.42;fill-rule:nonzero;"/>
    <path id="path1167" d="M141.525,355.37L141.525,516.32M141.525,516.32L108.141,525.187M141.525,516.32L252.406,555.318" style="fill:none;fill-rule:nonzero;stroke:black;stroke-width:1.81px;"/>
    <path id="path1169" d="M247.512,482.117L343.887,516.013L343.887,376.12L247.512,482.117Z" style="fill:rgb(238,238,238);fill-opacity:0.42;fill-rule:nonzero;"/>
    <path id="path1171" d="M196.21,407.026L298.68,393.682M196.21,419.177L298.68,393.682M204.581,422.121L298.68,393.682M204.581,409.97L298.68,393.682" style="fill:none;fill-rule:nonzero;stroke:black;stroke-width:1.81px;"/>
    <path id="path1173" d="M343.887,516.013L393.963,502.712L393.963,362.819L343.887,516.013Z" style="fill:rgb(238,238,238);fill-opacity:0.42;fill-rule:nonzero;"/>
    <path id="path1175" d="M108.141,364.238L108.141,525.187M108.141,525.187L219.022,564.186" style="fill:none;fill-rule:nonzero;stroke:black;stroke-width:1.81px;"/>
    <path id="path1177" d="M343.887,376.12L393.963,362.819L247.512,342.224L343.887,376.12Z" style="fill:rgb(238,238,238);fill-opacity:0.42;fill-rule:nonzero;"/>
    <path id="path1179" d="M343.887,376.12L343.887,516.013" style="fill:none;fill-rule:nonzero;stroke:black;stroke-width:1.81px;"/>
    <path id="path1181" d="M141.525,516.32L108.141,525.187L108.141,364.238L141.525,516.32Z" style="fill:rgb(238,238,238);fill-opacity:0.42;fill-rule:nonzero;"/>
    <path id="path1183" d="M343.887,376.12L393.963,362.819" style="fill:none;fill-rule:nonzero;stroke:black;stroke-width:1.81px;"/>
    <path id="path1185" d="M141.525,355.37L141.525,516.32L108.141,364.238L141.525,355.37ZM343.887,376.12L343.887,516.013L393.963,362.819L343.887,376.12Z" style="fill:rgb(238,238,238);fill-opacity:0.42;fill-rule:nonzero;"/>
    <path id="path1187" d="M141.525,355.37L108.141,364.238M141.525,355.37L252.406,394.368" style="fill:none;fill-rule:nonzero;stroke:black;stroke-width:1.81px;"/>
    <path id="path1189" d="M252.406,555.318L141.525,516.32L141.525,355.37L252.406,555.318ZM219.022,564.186L108.141,525.187L141.525,516.32L219.022,564.186Z" style="fill:rgb(238,238,238);fill-opacity:0.42;fill-rule:nonzero;"/>
    <path id="path1191" d="M196.209,419.177L196.209,407.026L298.68,393.682L196.209,419.177ZM204.581,422.121L196.209,419.177L298.68,393.682L204.581,422.121ZM196.209,407.026L204.581,409.97L298.68,393.682L196.209,407.026ZM204.581,409.97L204.581,422.121L298.68,393.682L204.581,409.97Z" style="fill:rgb(255,187,187);fill-opacity:0.4;fill-rule:nonzero;"/>
    <path id="path1193" d="M108.141,364.238L219.022,403.236" style="fill:none;fill-rule:nonzero;stroke:black;stroke-width:1.81px;"/>
    <path id="path1195" d="M252.406,555.318L219.022,564.186L141.525,516.32L252.406,555.318Z" style="fill:rgb(238,238,238);fill-opacity:0.42;fill-rule:nonzero;"/>
    <path id="path1197" d="M196.21,407.026L196.21,419.177M196.21,419.177L204.581,422.121M196.209,407.026L196.209,419.177M196.209,419.177L162.825,428.044M196.209,419.177L204.581,422.121M196.21,407.026L204.581,409.97M196.209,407.026L162.825,415.893M196.209,407.026L204.581,409.97" style="fill:none;fill-rule:nonzero;stroke:black;stroke-width:1.81px;"/>
    <path id="path1199" d="M252.406,394.368L141.525,355.37L108.141,364.238L252.406,394.368Z" style="fill:rgb(238,238,238);fill-opacity:0.42;fill-rule:nonzero;"/>
    <path id="path1201" d="M204.581,422.121L196.209,419.177L196.209,407.026L204.581,422.121Z" style="fill:rgb(153,221,255);fill-opacity:0.4;fill-rule:nonzero;"/>
    <path id="path1203" d="M196.209,407.026L196.209,419.177L204.581,422.121L196.209,407.026Z" style="fill:rgb(255,187,187);fill-opacity:0.4;fill-rule:nonzero;"/>
    <path id="path1205" d="M108.141,364.238L108.141,525.187L219.022,403.236L108.141,364.238Z" style="fill:rgb(238,238,238);fill-opacity:0.42;fill-rule:nonzero;"/>
    <path id="path1207" d="M204.581,409.97L204.581,422.121L196.209,407.026L204.581,409.97Z" style="fill:rgb(153,221,255);fill-opacity:0.4;fill-rule:nonzero;"/>
    <path id="path1209" d="M196.209,407.026L204.581,422.121L204.581,409.97L196.209,407.026Z" style="fill:rgb(255,187,187);fill-opacity:0.4;fill-rule:nonzero;"/>
    <path id="path1211" d="M204.581,422.121L204.581,409.97M171.197,430.988L204.581,422.121M204.581,409.97L204.581,422.121" style="fill:none;fill-rule:nonzero;stroke:black;stroke-width:1.81px;"/>
    <path id="path1213" d="M196.209,407.026L196.209,419.177L162.825,415.893L196.209,407.026Z" style="fill:rgb(153,221,255);fill-opacity:0.4;fill-rule:nonzero;"/>
    <path id="path1215" d="M171.197,418.837L204.581,409.97" style="fill:none;fill-rule:nonzero;stroke:black;stroke-width:1.81px;"/>
    <path id="path1217" d="M204.581,422.121L171.197,430.988L196.209,419.177L204.581,422.121ZM204.581,409.97L196.209,407.026L162.825,415.893L204.581,409.97Z" style="fill:rgb(153,221,255);fill-opacity:0.4;fill-rule:nonzero;"/>
    <path id="path1219" d="M252.406,394.368L252.406,555.318L141.525,355.37L252.406,394.368Z" style="fill:rgb(238,238,238);fill-opacity:0.42;fill-rule:nonzero;"/>
    <path id="path1221" d="M171.197,430.988L204.581,422.121L204.581,409.97L171.197,430.988ZM196.209,419.177L162.825,428.044L162.825,415.893L196.209,419.177ZM171.197,430.988L162.825,428.044L196.209,419.177L171.197,430.988Z" style="fill:rgb(153,221,255);fill-opacity:0.4;fill-rule:nonzero;"/>
    <path id="path1223" d="M219.022,564.186L252.406,555.318M252.406,394.368L252.406,555.318M162.825,415.893L162.825,428.044M162.825,428.044L171.197,430.988" style="fill:none;fill-rule:nonzero;stroke:black;stroke-width:1.81px;"/>
    <path id="path1225" d="M171.197,418.837L204.581,409.97L162.825,415.893L171.197,418.837Z" style="fill:rgb(153,221,255);fill-opacity:0.4;fill-rule:nonzero;"/>
    <path id="path1227" d="M108.141,525.187L219.022,564.186L219.022,403.236L108.141,525.187Z" style="fill:rgb(238,238,238);fill-opacity:0.42;fill-rule:nonzero;"/>
    <path id="path1229" d="M171.197,418.837L171.197,430.988L204.581,409.97L171.197,418.837Z" style="fill:rgb(153,221,255);fill-opacity:0.4;fill-rule:nonzero;"/>
    <path id="path1231" d="M162.825,415.893L171.197,418.837" style="fill:none;fill-rule:nonzero;stroke:black;stroke-width:1.81px;"/>
    <path id="path1233" d="M162.825,415.893L162.825,428.044L171.197,418.837L162.825,415.893ZM162.825,428.044L171.197,430.988L171.197,418.837L162.825,428.044Z" style="fill:rgb(153,221,255);fill-opacity:0.4;fill-rule:nonzero;"/>
    <path id="path1235" d="M171.197,418.837L171.197,430.988" style="fill:none;fill-rule:nonzero;stroke:black;stroke-width:1.81px;"/>
    <path id="path1237" d="M219.022,564.186L252.406,555.318L252.406,394.368L219.022,564.186Z" style="fill:rgb(238,238,238);fill-opacity:0.42;fill-rule:nonzero;"/>
    <path id="path1239" d="M219.022,403.236L219.022,564.186" style="fill:none;fill-rule:nonzero;stroke:black;stroke-width:1.81px;"/>
    <path id="path1241" d="M219.022,403.236L252.406,394.368L108.141,364.238L219.022,403.236Z" style="fill:rgb(238,238,238);fill-opacity:0.42;fill-rule:nonzero;"/>
    <path id="path1243" d="M219.022,403.236L252.406,394.368" style="fill:none;fill-rule:nonzero;stroke:black;stroke-width:1.81px;"/>
    <path id="path1245" d="M219.022,403.236L219.022,564.186L252.406,394.368L219.022,403.236Z" style="fill:rgb(238,238,238);fill-opacity:0.42;fill-rule:nonzero;"/>
    <g id="text1078">
    </g>
    <g transform="matrix(0.977277,0.358014,-0.330502,0.902176,153.999,570.511)">
        <g id="text1078-6">
            <text x="0px" y="0px" style="font-family:'AppleMyungjo';font-size:28.949px;">126</text>
        </g>
    </g>
    <g transform="matrix(0.977277,0.358014,-0.330502,0.902176,303.289,535.053)">
        <g id="text1078-6-3">
            <text x="0px" y="0px" style="font-family:'AppleMyungjo';font-size:28.949px;">62</text>
        </g>
    </g>
    <g transform="matrix(0.977277,0.358014,-0.330502,0.902176,442.808,480.455)">
        <g id="text1078-6-3-3">
            <text x="0px" y="0px" style="font-family:'AppleMyungjo';font-size:28.949px;">32</text>
        </g>
    </g>
    <g transform="matrix(1.03986,-0.0133369,-0.00155264,0.961689,126.57,325.55)">
        <g id="text1078-2">
            <text x="0px" y="0px" style="font-family:'AppleMyungjo';font-size:28.949px;">1</text>
        </g>
    </g>
    <g transform="matrix(1.04078,-0.00438114,0.00404445,0.9608,278.247,307.735)">
        <g id="text1078-2-3">
            <text x="0px" y="0px" style="font-family:'AppleMyungjo';font-size:28.949px;">4</text>
        </g>
    </g>
    <g transform="matrix(1.04078,-0.00438114,0.00404445,0.9608,429.603,292.964)">
        <g id="text1078-2-3-2">
            <text x="0px" y="0px" style="font-family:'AppleMyungjo';font-size:28.949px;">8</text>
        </g>
    </g>
</svg>
