<?xml version="1.0" encoding="UTF-8" standalone="no"?>
<!DOCTYPE svg PUBLIC "-//W3C//DTD SVG 1.1//EN" "http://www.w3.org/Graphics/SVG/1.1/DTD/svg11.dtd">
<svg width="100%" height="100%" viewBox="0 0 219 220" version="1.1" xmlns="http://www.w3.org/2000/svg" xmlns:xlink="http://www.w3.org/1999/xlink" xml:space="preserve" xmlns:serif="http://www.serif.com/" style="fill-rule:evenodd;clip-rule:evenodd;stroke-linecap:round;stroke-linejoin:round;stroke-miterlimit:10;">
    <g id="Plan-de-travail1" serif:id="Plan de travail1" transform="matrix(0.726105,0,0,0.862411,-205.867,-117.136)">
        <rect x="283.522" y="135.824" width="301.175" height="254.683" style="fill:none;"/>
        <g id="desmos-graph" transform="matrix(0.390843,0,0,0.32907,433.462,262.217)">
            <g transform="matrix(1,0,0,1,-400,-400)">
                <g transform="matrix(3.84177,0,0,3.84177,-362.985,-363.023)">
                    <g id="expressions-bebd1216">
                        <g>
                            <path d="M199.5,108.456L203.001,106.687L205.399,105.739L207.828,105.073L209.654,104.798L211.471,104.737L213.267,104.901L215.029,105.291L216.746,105.9L218.953,107.027L221.054,108.461L223.529,110.568L226.755,113.789L230.272,117.285L232.503,119.109L234.369,120.291L236.342,121.207L238.444,121.865L240.687,122.299L243.678,122.61L252.682,123.323L255.21,123.827L257.609,124.586L259.825,125.64L261.81,127.006L263.128,128.236L264.291,129.63L265.298,131.174L266.154,132.846L267.083,135.232L267.809,137.734L268.653,141.556L269.699,146.447L270.355,148.698L271.186,150.783L272.235,152.697L273.529,154.454L275.07,156.08L277.307,157.99L286.875,165.539L288.546,167.441L289.606,168.966L290.472,170.572L291.128,172.254L291.566,174.003L291.784,175.806L291.79,177.65L291.601,179.52L291.24,181.402L290.543,183.905L289.449,186.986L287.036,193.44L286.431,195.674L286.074,197.868L285.992,199.5L286.074,201.132L286.316,202.774L286.864,204.996L287.833,207.85L290.737,215.719L291.377,218.226L291.684,220.106L291.811,221.969L291.735,223.801L291.445,225.587L290.934,227.315L290.206,228.972L289.273,230.552L288.154,232.048L286.419,233.914L283.968,236.052L279.8,239.152L275.927,242.144L273.892,244.129L272.535,245.85L271.426,247.723L270.544,249.765L269.85,251.975L269.155,254.946L267.644,261.898L266.872,264.379L265.885,266.724L264.979,268.356L263.921,269.852L262.706,271.193L261.338,272.365L259.291,273.653L257.025,274.63L254.587,275.321L252.037,275.77L248.131,276.13L240.687,276.701L238.444,277.135L236.342,277.793L234.369,278.709L232.503,279.891L230.272,281.715L227.642,284.294L223.047,288.874L220.539,290.922L218.411,292.286L216.179,293.327L214.446,293.864L212.672,294.179L210.867,294.267L209.046,294.133L206.611,293.634L204.195,292.817L201.234,291.465L196.689,288.958L192.895,286.938L190.241,285.849L188.116,285.273L185.961,284.983L183.751,284.975L181.468,285.216L177.889,285.919L170.931,287.426L168.355,287.745L165.814,287.808L163.35,287.556L161.578,287.134L159.887,286.503L158.291,285.663L156.325,284.235L154.552,282.492L152.964,280.494L151.542,278.315L149.637,274.891L146.952,269.947L145.677,267.995L144.277,266.254L142.709,264.738L140.95,263.441L138.991,262.334L136.283,261.148L125.539,256.87L123.371,255.545L121.441,253.995L120.184,252.678L119.109,251.229L118.226,249.657L117.538,247.972L117.041,246.191L116.721,244.333L116.56,242.418L116.546,239.816L116.743,236.553L117.209,230.3L117.188,227.971L116.945,225.751L116.592,224.153L116.082,222.602L115.159,220.591L113.981,218.616L112.222,216.149L107.229,209.393L105.933,207.16L105.135,205.437L104.518,203.68L104.106,201.898L103.916,200.101L103.954,198.299L104.219,196.506L104.702,194.731L105.382,192.985L106.553,190.714L107.952,188.519L110.28,185.369L113.651,180.876L114.887,178.905L115.877,176.906L116.44,175.369L116.845,173.787L117.097,172.152L117.222,169.878L117.156,167.495L116.743,162.447L116.546,159.184L116.56,156.582L116.721,154.667L117.041,152.809L117.538,151.028L118.226,149.343L119.109,147.771L120.184,146.322L121.441,145.005L123.371,143.455L125.539,142.13L128.477,140.744L132.746,139.141L137.94,137.162L140.479,135.852L142.288,134.606L143.902,133.147L145.341,131.461L146.642,129.559L148.153,126.926L151.884,120.128L153.344,117.987L154.977,116.046L156.799,114.376L158.812,113.034L160.441,112.264L162.16,111.703L163.956,111.349L166.443,111.18L168.997,111.314L172.219,111.804L177.275,112.939L181.468,113.784L183.751,114.025L185.961,114.017L188.116,113.727L190.241,113.151L192.362,112.309L195.59,110.659L199.5,108.456" style="fill:none;fill-rule:nonzero;stroke:white;stroke-opacity:0.7;stroke-width:2.5px;"/>
                        </g>
                        <g>
                            <path d="M199.5,108.456L207.169,112.542L209.288,113.321L211.419,113.827L213.586,114.045L215.813,113.987L218.704,113.586L222.967,112.647L228.069,111.574L230.645,111.255L233.186,111.192L235.65,111.444L237.422,111.866L239.113,112.497L240.709,113.337L242.675,114.765L244.448,116.508L246.036,118.506L247.458,120.685L249.363,124.109L252.048,129.053L253.323,131.005L254.723,132.746L256.291,134.262L258.05,135.559L260.009,136.666L262.717,137.852L273.461,142.13L275.629,143.455L277.559,145.005L278.816,146.322L279.891,147.771L280.774,149.343L281.462,151.028L281.959,152.809L282.279,154.667L282.44,156.582L282.454,159.184L282.257,162.447L281.791,168.7L281.812,171.029L282.055,173.249L282.408,174.847L282.918,176.398L283.841,178.409L285.019,180.384L286.778,182.851L291.771,189.607L293.067,191.84L293.865,193.563L294.482,195.32L294.894,197.102L295.084,198.899L295.046,200.701L294.781,202.494L294.298,204.269L293.618,206.015L292.447,208.286L291.048,210.481L288.72,213.631L285.349,218.124L284.113,220.095L283.123,222.094L282.56,223.631L282.155,225.213L281.903,226.848L281.778,229.122L281.844,231.505L282.257,236.553L282.454,239.816L282.44,242.418L282.279,244.333L281.959,246.191L281.462,247.972L280.774,249.657L279.891,251.229L278.816,252.678L277.559,253.995L275.629,255.545L273.461,256.87L270.523,258.256L266.254,259.859L261.06,261.838L258.521,263.148L256.712,264.394L255.098,265.853L253.659,267.539L252.358,269.441L250.847,272.074L247.116,278.872L245.656,281.013L244.023,282.954L242.201,284.624L240.188,285.966L238.559,286.736L236.84,287.297L235.044,287.651L232.557,287.82L230.003,287.686L226.781,287.196L221.725,286.061L217.532,285.216L215.249,284.975L213.039,284.983L210.884,285.273L208.759,285.849L206.638,286.691L203.41,288.341L195.999,292.313L193.601,293.261L191.172,293.927L189.346,294.202L187.529,294.263L185.733,294.099L183.971,293.709L182.254,293.1L180.047,291.973L177.946,290.539L175.471,288.432L172.245,285.211L168.728,281.715L166.497,279.891L164.631,278.709L162.658,277.793L160.556,277.135L158.313,276.701L155.322,276.39L146.318,275.677L143.79,275.173L141.391,274.414L139.175,273.36L137.19,271.994L135.872,270.764L134.709,269.37L133.702,267.826L132.846,266.154L131.917,263.768L131.191,261.266L130.347,257.444L129.301,252.553L128.645,250.302L127.814,248.217L126.765,246.303L125.471,244.546L123.93,242.92L121.693,241.01L112.125,233.461L110.454,231.559L109.394,230.034L108.528,228.428L107.872,226.746L107.434,224.997L107.216,223.194L107.21,221.35L107.399,219.48L107.76,217.598L108.457,215.095L109.551,212.014L111.964,205.56L112.569,203.326L112.926,201.132L113.008,199.5L112.926,197.868L112.684,196.226L112.136,194.004L111.167,191.15L108.263,183.281L107.623,180.774L107.316,178.894L107.189,177.031L107.265,175.199L107.555,173.413L108.066,171.685L108.794,170.028L109.727,168.448L110.846,166.952L112.581,165.086L115.032,162.948L119.2,159.848L123.073,156.856L125.108,154.871L126.465,153.15L127.574,151.277L128.456,149.235L129.15,147.025L129.845,144.054L131.356,137.102L132.128,134.621L133.115,132.276L134.021,130.644L135.079,129.148L136.294,127.807L137.662,126.635L139.709,125.347L141.975,124.37L144.413,123.679L146.963,123.23L150.869,122.87L158.313,122.299L160.556,121.865L162.658,121.207L164.631,120.291L166.497,119.109L168.728,117.285L171.358,114.706L175.953,110.126L178.461,108.078L180.589,106.714L182.821,105.673L184.554,105.136L186.328,104.821L188.133,104.733L189.954,104.867L192.389,105.366L194.805,106.183L197.766,107.535L199.5,108.456" style="fill:none;fill-rule:nonzero;stroke:white;stroke-opacity:0.7;stroke-width:2.5px;"/>
                        </g>
                    </g>
                </g>
            </g>
        </g>
        <g transform="matrix(1.1844,0,0,1.5074,135.232,-2.39848)">
            <text x="182.601px" y="213.685px" style="font-family:'BigCaslon-Medium', 'Big Caslon';font-weight:500;font-size:100px;fill:white;">FC</text>
        </g>
    </g>
</svg>
